<svg xmlns="http://www.w3.org/2000/svg" xmlns:xlink="http://www.w3.org/1999/xlink" contentStyleType="text/css" data-diagram-type="DESCRIPTION" height="471px" preserveAspectRatio="none" style="width:1171px;height:471px;background:#FFFFFF;" version="1.1" viewBox="0 0 1171 471" width="1171px" zoomAndPan="magnify"><defs/><g><!--cluster Routing / UI--><g class="cluster" data-qualified-name="Routing . UI" data-source-line="1" id="ent0002"><rect fill="none" height="252.49" rx="2.5" ry="2.5" style="stroke:#181818;stroke-width:1;" width="294" x="441.18" y="7"/><text fill="#000000" font-family="sans-serif" font-size="14" font-weight="bold" lengthAdjust="spacing" textLength="93.2832" x="541.5384" y="21.9951">Routing / UI</text></g><!--cluster lib--><g class="cluster" data-qualified-name="lib" data-source-line="6" id="ent0005"><path d="M286.68,283.49 L307.2991,283.49 A3.75,3.75 0 0 1 309.7991,285.99 L316.7991,305.7869 L883.68,305.7869 A2.5,2.5 0 0 1 886.18,308.2869 L886.18,461.58 A2.5,2.5 0 0 1 883.68,464.08 L286.68,464.08 A2.5,2.5 0 0 1 284.18,461.58 L284.18,285.99 A2.5,2.5 0 0 1 286.68,283.49" fill="none" style="stroke:#000000;stroke-width:1.5;"/><line style="stroke:#000000;stroke-width:1.5;" x1="284.18" x2="316.7991" y1="305.7869" y2="305.7869"/><text fill="#000000" font-family="sans-serif" font-size="14" font-weight="bold" lengthAdjust="spacing" textLength="19.6191" x="288.18" y="298.4851">lib</text></g><!--cluster conversores--><g class="cluster" data-qualified-name="lib.conversores" data-source-line="7" id="ent0006"><path d="M310.68,326.49 L407.7728,326.49 A3.75,3.75 0 0 1 410.2728,328.99 L417.2728,348.7869 L859.68,348.7869 A2.5,2.5 0 0 1 862.18,351.2869 L862.18,437.58 A2.5,2.5 0 0 1 859.68,440.08 L310.68,440.08 A2.5,2.5 0 0 1 308.18,437.58 L308.18,328.99 A2.5,2.5 0 0 1 310.68,326.49" fill="none" style="stroke:#000000;stroke-width:1.5;"/><line style="stroke:#000000;stroke-width:1.5;" x1="308.18" x2="417.2728" y1="348.7869" y2="348.7869"/><text fill="#000000" font-family="sans-serif" font-size="14" font-weight="bold" lengthAdjust="spacing" textLength="96.0928" x="312.18" y="341.4851">conversores</text></g><!--entity PageSvelte--><g class="entity" data-qualified-name="Routing . UI.PageSvelte" data-source-line="2" id="ent0003"><rect fill="#F1F1F1" height="78.8906" rx="2.5" ry="2.5" style="stroke:#181818;stroke-width:0.5;" width="262.0723" x="457.15" y="164.6"/><rect fill="#F1F1F1" height="10" style="stroke:#181818;stroke-width:0.5;" width="15" x="699.2223" y="169.6"/><rect fill="#F1F1F1" height="2" style="stroke:#181818;stroke-width:0.5;" width="4" x="697.2223" y="171.6"/><rect fill="#F1F1F1" height="2" style="stroke:#181818;stroke-width:0.5;" width="4" x="697.2223" y="175.6"/><text fill="#000000" font-family="sans-serif" font-size="14" lengthAdjust="spacing" textLength="93.3311" x="472.15" y="197.5951">+page.svelte</text><text fill="#000000" font-family="sans-serif" font-size="14" lengthAdjust="spacing" textLength="212.167" x="472.15" y="213.892">Contém Html da página inicial</text><text fill="#000000" font-family="sans-serif" font-size="14" lengthAdjust="spacing" textLength="222.0723" x="472.15" y="230.1889">Responsável por validar o input</text></g><!--entity PageTS--><g class="entity" data-qualified-name="Routing . UI.PageTS" data-source-line="3" id="ent0004"><rect fill="#F1F1F1" height="62.5938" rx="2.5" ry="2.5" style="stroke:#181818;stroke-width:0.5;" width="247.5322" x="464.42" y="42"/><rect fill="#F1F1F1" height="10" style="stroke:#181818;stroke-width:0.5;" width="15" x="691.9522" y="47"/><rect fill="#F1F1F1" height="2" style="stroke:#181818;stroke-width:0.5;" width="4" x="689.9522" y="49"/><rect fill="#F1F1F1" height="2" style="stroke:#181818;stroke-width:0.5;" width="4" x="689.9522" y="53"/><text fill="#000000" font-family="sans-serif" font-size="14" lengthAdjust="spacing" textLength="63.9297" x="479.42" y="74.9951">+page.ts</text><text fill="#000000" font-family="sans-serif" font-size="14" lengthAdjust="spacing" textLength="207.5322" x="479.42" y="91.292">Recupera queryString da URL</text></g><!--entity ParaRomano--><g class="entity" data-qualified-name="lib.conversores.ParaRomano" data-source-line="8" id="ent0007"><rect fill="#F1F1F1" height="62.5938" rx="2.5" ry="2.5" style="stroke:#181818;stroke-width:0.5;" width="249.0088" x="324.68" y="361.49"/><rect fill="#F1F1F1" height="10" style="stroke:#181818;stroke-width:0.5;" width="15" x="553.6888" y="366.49"/><rect fill="#F1F1F1" height="2" style="stroke:#181818;stroke-width:0.5;" width="4" x="551.6888" y="368.49"/><rect fill="#F1F1F1" height="2" style="stroke:#181818;stroke-width:0.5;" width="4" x="551.6888" y="372.49"/><text fill="#000000" font-family="sans-serif" font-size="14" lengthAdjust="spacing" textLength="106.5381" x="339.68" y="394.4851">ParaRomano.ts</text><text fill="#000000" font-family="sans-serif" font-size="14" lengthAdjust="spacing" textLength="209.0088" x="339.68" y="410.782">Exporta a classe ParaRomano</text></g><!--entity DeRomano--><g class="entity" data-qualified-name="lib.conversores.DeRomano" data-source-line="9" id="ent0008"><rect fill="#F1F1F1" height="62.5938" rx="2.5" ry="2.5" style="stroke:#181818;stroke-width:0.5;" width="237.0459" x="608.66" y="361.49"/><rect fill="#F1F1F1" height="10" style="stroke:#181818;stroke-width:0.5;" width="15" x="825.7059" y="366.49"/><rect fill="#F1F1F1" height="2" style="stroke:#181818;stroke-width:0.5;" width="4" x="823.7059" y="368.49"/><rect fill="#F1F1F1" height="2" style="stroke:#181818;stroke-width:0.5;" width="4" x="823.7059" y="372.49"/><text fill="#000000" font-family="sans-serif" font-size="14" lengthAdjust="spacing" textLength="94.5752" x="623.66" y="394.4851">DeRomano.ts</text><text fill="#000000" font-family="sans-serif" font-size="14" lengthAdjust="spacing" textLength="197.0459" x="623.66" y="410.782">Exporta a classe DeRomano</text></g><g class="entity" data-qualified-name="GMN12" data-source-line="20" id="ent0013"><path d="M6,372.65 L6,412.9156 A0,0 0 0 0 6,412.9156 L268.3696,412.9156 A0,0 0 0 0 268.3696,412.9156 L268.3696,396.78 L324.47,392.78 L268.3696,388.78 L268.3696,382.65 L258.3696,372.65 L6,372.65 A0,0 0 0 0 6,372.65" fill="#FEFFDD" style="stroke:#181818;stroke-width:0.5;"/><path d="M258.3696,372.65 L258.3696,382.65 L268.3696,382.65 L258.3696,372.65" fill="#FEFFDD" style="stroke:#181818;stroke-width:0.5;"/><text fill="#000000" font-family="sans-serif" font-size="13" lengthAdjust="spacing" textLength="234.5649" x="12" y="389.7169">Contém o algoritmo para conversão</text><text fill="#000000" font-family="sans-serif" font-size="13" lengthAdjust="spacing" textLength="241.3696" x="12" y="404.8497">de decimal para algarismos romanos</text></g><g class="entity" data-qualified-name="GMN15" data-source-line="25" id="ent0016"><path d="M902,372.65 L902,388.78 L846.12,392.78 L902,396.78 L902,412.9156 A0,0 0 0 0 902,412.9156 L1164.3696,412.9156 A0,0 0 0 0 1164.3696,412.9156 L1164.3696,382.65 L1154.3696,372.65 L902,372.65 A0,0 0 0 0 902,372.65" fill="#FEFFDD" style="stroke:#181818;stroke-width:0.5;"/><path d="M1154.3696,372.65 L1154.3696,382.65 L1164.3696,382.65 L1154.3696,372.65" fill="#FEFFDD" style="stroke:#181818;stroke-width:0.5;"/><text fill="#000000" font-family="sans-serif" font-size="13" lengthAdjust="spacing" textLength="234.5649" x="908" y="389.7169">Contém o algoritmo para conversão</text><text fill="#000000" font-family="sans-serif" font-size="13" lengthAdjust="spacing" textLength="241.3696" x="908" y="404.8497">de algarismos romanos para decimal</text></g><!--link PageTS to PageSvelte--><g class="link" data-entity-1="ent0004" data-entity-2="ent0003" data-link-type="dependency" data-source-line="15" id="lnk9"><path d="M588.18,104.81 C588.18,122.65 588.18,139.35 588.18,158.44" fill="none" id="PageTS-to-PageSvelte" style="stroke:#181818;stroke-width:1;"/><polygon fill="#181818" points="588.18,164.44,592.18,155.44,588.18,159.44,584.18,155.44,588.18,164.44" style="stroke:#181818;stroke-width:1;"/></g><!--link PageSvelte to DeRomano--><g class="link" data-entity-1="ent0003" data-entity-2="ent0008" data-link-type="dependency" data-source-line="16" id="lnk10"><path d="M616.99,243.73 C642.91,278.56 676.9171,324.2473 700.8071,356.3373" fill="none" id="PageSvelte-to-DeRomano" style="stroke:#181818;stroke-width:1;"/><polygon fill="#181818" points="704.39,361.15,702.2241,351.5423,701.4042,357.1394,695.8071,356.3195,704.39,361.15" style="stroke:#181818;stroke-width:1;"/></g><!--link PageSvelte to ParaRomano--><g class="link" data-entity-1="ent0003" data-entity-2="ent0007" data-link-type="dependency" data-source-line="17" id="lnk11"><path d="M559.38,243.73 C533.46,278.56 499.4529,324.2473 475.5629,356.3373" fill="none" id="PageSvelte-to-ParaRomano" style="stroke:#181818;stroke-width:1;"/><polygon fill="#181818" points="471.98,361.15,480.5629,356.3195,474.9658,357.1394,474.1459,351.5423,471.98,361.15" style="stroke:#181818;stroke-width:1;"/></g><!--SRC=[ZP5BJiCm48RtFiKe6nQeS0CsW4Gb5bL2TzqCpZHOE9vWEmM4UfYA5UV8nPWy-m0X92yy3t__FsDFEg8hB46ISXsDA-0IblC4FXI0vh9YHov2SbvXGHTXGpRIobspYyrN2NUnj90ZLCskC0x1EACDsfLBASZBqEpa0LJiOOFMvEY1fQUgOm8OO278h2F-fXL3Yz5rHHxXfIR_daNV-XEzPNe_4HuojLMgGlqi0IJMFFRcfuncjo4Vs5FeAqTY2_IOSecEEyNRDt4R4H2qnH08zlL1SGnFGJVq5sQiTf0n4CIsDNy6SnTbJ1sDB4q-O6tvDIZLZmUpsTNXhlRNhZB1Jl87JfLZILfQH-3ryGZZJpAWBTYRMB9iJZO-RAtvRBjoagDDYROlIYzw4qeEu3jIKEHoQ6K6CM-AfqxjODP_Q_t4zts3Xqdh6m00]--></g></svg>